<svg xmlns="http://www.w3.org/2000/svg" xmlns:xlink="http://www.w3.org/1999/xlink" viewBox="0 0 283.46 283.46">
<defs>
<style>.cls-1{fill:url(#linear-gradient);}.cls-2{fill:#efa022;}.cls-3{fill:#fafafa;}.cls-4{fill:#c8c8c8;}.cls-5{fill:#f8ce23;}.cls-6{fill:#626263;}
#shadow {filter: drop-shadow(rgb(0, 0, 0) 5px 5px 5px);}
</style>

<linearGradient id="linear-gradient" x1="-0.3" y1="-0.63" x2="282.37" y2="282.7" gradientUnits="userSpaceOnUse"><stop offset="0" stop-color="gray"/><stop offset="1" stop-color="#f2f2f2"/></linearGradient>

</defs>
<title>Asset 10</title>

<g id="Layer_2" data-name="Layer 2"><g id="background_04" data-name="background 04">
<rect class="cls-1" width="283.46" height="283.46"/>
</g>
<g id="shadow" >
<rect class="cls-2" x="34.83" y="87.62" width="197.71" height="150.45" rx="12.03" ry="12.03"/>
<path d="M220.5,245.07H46.86a19.06,19.06,0,0,1-19-19V99.65a19.06,19.06,0,0,1,19-19H220.5a19.06,19.06,0,0,1,19,19V226A19.06,19.06,0,0,1,220.5,245.07ZM46.86,87.62a12,12,0,0,0-12,12V226a12.05,12.05,0,0,0,12,12H220.5a12.05,12.05,0,0,0,12-12V99.65a12.05,12.05,0,0,0-12-12Z"/>
</g>
<g id="shadow">
<path d="M55.12,69.65V173a10.2,10.2,0,0,0,10.2,10.2H199.44a10.2,10.2,0,0,0,10.2-10.2V44.81a10.21,10.21,0,0,0-10.2-10.21H90.17a5.4,5.4,0,0,0-3.83,1.59L56.7,65.83A5.41,5.41,0,0,0,55.12,69.65Z"/>
<path class="cls-3" d="M97.55,66.83V41.41H199.44a3.41,3.41,0,0,1,3.4,3.4V173a3.41,3.41,0,0,1-3.4,3.4H65.32a3.41,3.41,0,0,1-3.4-3.4V77H87.34A10.22,10.22,0,0,0,97.55,66.83Z"/>
<path class="cls-4" d="M87.34,70.23H61.92L90.74,41.41V66.83A3.41,3.41,0,0,1,87.34,70.23Z"/>
<rect class="cls-6" x="110.67" y="54.39" width="79.9" height="6.8" rx="3.4" ry="3.4" transform="translate(301.25 115.59) rotate(180)"/>
<rect class="cls-6" x="74.33" y="88.51" width="116.24" height="6.8" rx="3.4" ry="3.4" transform="translate(264.91 183.83) rotate(-180)"/>
<rect class="cls-6" x="75.56" y="122.63" width="102.24" height="6.8" rx="3.4" ry="3.4" transform="translate(253.36 252.07) rotate(-180)"/>
</g>
<g id="front">
<path d="M220.5,245.07H46.86a16,16,0,0,1-12.66-5.74,16.73,16.73,0,0,1-3.13-14L45.26,156c2.07-10.11,12-18.33,22.15-18.33h76.11l49.71-25h52.93a16,16,0,0,1,12.66,5.73,16.74,16.74,0,0,1,3.13,14l-19.31,94.39C240.57,236.84,230.64,245.07,220.5,245.07ZM67.41,144.62c-6.88,0-13.87,5.83-15.29,12.73L37.93,226.74a9.61,9.61,0,0,0,1.7,8.17,9.07,9.07,0,0,0,7.23,3.16H220.5c6.87,0,13.87-5.83,15.29-12.74L255.09,131a9.61,9.61,0,0,0-1.7-8.17,9.07,9.07,0,0,0-7.23-3.16H194.9l-49.72,25Z"/>
<path class="cls-5" d="M67.41,144.62c-6.88,0-13.87,5.83-15.29,12.73L37.93,226.74a9.61,9.61,0,0,0,1.7,8.17,9.07,9.07,0,0,0,7.23,3.16H220.5c6.87,0,13.87-5.83,15.29-12.74L255.09,131a9.61,9.61,0,0,0-1.7-8.17,9.07,9.07,0,0,0-7.23-3.16H194.9l-49.72,25Z"/>
</g>
</g>
</svg>